<?xml version="1.0" encoding="UTF-8" standalone="no"?>
<svg
   height="24px"
   viewBox="0 -960 960 960"
   width="24px"
   fill="#000000"
   version="1.1"
   id="svg1"
   sodipodi:docname="application.svg"
   inkscape:version="1.4.4 (dcaf3e7d9e, 2026-05-05)"
   xmlns:inkscape="http://www.inkscape.org/namespaces/inkscape"
   xmlns:sodipodi="http://sodipodi.sourceforge.net/DTD/sodipodi-0.dtd"
   xmlns="http://www.w3.org/2000/svg"
   xmlns:svg="http://www.w3.org/2000/svg">
  <defs
     id="defs1" />
  <sodipodi:namedview
     id="namedview1"
     pagecolor="#ffffff"
     bordercolor="#000000"
     borderopacity="0.25"
     inkscape:showpageshadow="2"
     inkscape:pageopacity="0.0"
     inkscape:pagecheckerboard="0"
     inkscape:deskcolor="#d1d1d1"
     inkscape:zoom="64"
     inkscape:cx="11.078125"
     inkscape:cy="13.359375"
     inkscape:window-width="1920"
     inkscape:window-height="1052"
     inkscape:window-x="0"
     inkscape:window-y="0"
     inkscape:window-maximized="1"
     inkscape:current-layer="svg1"
     showgrid="true">
    <inkscape:grid
       id="grid6"
       units="px"
       originx="0"
       originy="0"
       spacingx="40"
       spacingy="40"
       empcolor="#0099e5"
       empopacity="0.30196078"
       color="#0099e5"
       opacity="0.14901961"
       empspacing="5"
       enabled="true"
       visible="true" />
  </sodipodi:namedview>
  <path
     d="m 160,-160 c -22,0 -40.83333,-7.83333 -56.5,-23.5 C 87.833333,-199.16667 80,-218 80,-240 v -480 c 0,-22 7.833333,-40.83333 23.5,-56.5 15.66667,-15.66667 34.5,-23.5 56.5,-23.5 h 640 c 22,0 40.83333,7.83333 56.5,23.5 15.66667,15.66667 23.5,34.5 23.5,56.5 v 480 c 0,22 -7.83333,40.83333 -23.5,56.5 -15.66667,15.66667 -34.5,23.5 -56.5,23.5 z m 0,-80 H 800 V -707.109 H 160 Z"
     id="path1"
     sodipodi:nodetypes="sssssssssssssccccc" />
  <rect
     style="fill:#000000;stroke-width:40"
     id="rect1"
     width="650.61615"
     height="39.810425"
     x="156.96683"
     y="-630.14215" />
  <rect
     style="fill:#000000;stroke-width:40"
     id="rect2"
     width="30.710899"
     height="98.957352"
     x="694.97626"
     y="-712.0379" />
  <rect
     style="fill:#000000;stroke-width:40"
     id="rect3"
     width="305.97156"
     height="25.023697"
     x="199.22141"
     y="-545.01349"
     ry="12.511848" />
  <rect
     style="fill:#000000;stroke-width:40"
     id="rect5"
     width="201.32233"
     height="280.95795"
     x="552.80084"
     y="-552.80682" />
  <rect
     style="fill:#000000;stroke-width:40"
     id="rect3-5"
     width="224"
     height="25.023697"
     x="199.22141"
     y="-487.50934"
     ry="12.511848" />
  <rect
     style="fill:#000000;stroke-width:40"
     id="rect3-2"
     width="188"
     height="25.023697"
     x="199.22141"
     y="-430.00519"
     ry="12.511848" />
</svg>
